<?xml version="1.0" encoding="UTF-8"?>
<svg xmlns="http://www.w3.org/2000/svg" viewBox="0 0 64 64" width="64" height="64" aria-label="Favicon">
  <defs>
    <linearGradient id="g" x1="0" y1="0" x2="1" y2="1">
      <stop offset="0" stop-color="#22c55e"/>
      <stop offset="1" stop-color="#16a34a"/>
    </linearGradient>
    <linearGradient id="g2" x1="0" y1="0" x2="1" y2="1">
      <stop offset="0" stop-color="#34d399"/>
      <stop offset="1" stop-color="#22c55e"/>
    </linearGradient>
  </defs>

  <!-- Transparent background (better for tab icons) -->

  <!-- Stem -->
  <path d="M29 55c6-10 6-22 6-34" fill="none" stroke="url(#g2)" stroke-width="8" stroke-linecap="round"/>

  <!-- Left leaf -->
  <path d="M12 22c8-10 22-12 28 2c-7 12-21 16-28-2z" fill="url(#g)"/>
  <path d="M18 27c6-3 11-4 18-3" fill="none" stroke="#eafff0" stroke-width="3" stroke-linecap="round" opacity="0.85"/>

  <!-- Right leaf -->
  <path d="M39 26c8-7 18-5 18 6c-9 8-19 8-18-6z" fill="url(#g)"/>
  <path d="M44 33c4-3 7-5 10-6" fill="none" stroke="#eafff0" stroke-width="3" stroke-linecap="round" opacity="0.85"/>
</svg>
